<svg version="1.1" id="Layer_1" xmlns="http://www.w3.org/2000/svg" xmlns:xlink="http://www.w3.org/1999/xlink" x="0px" y="0px"
	 width="100%" viewBox="0 0 500 500" enable-background="new 0 0 500 500" xml:space="preserve">
<path fill="#000000" opacity="1.000000" stroke="none" 
	d="
M344.000000,501.000000 
	C229.333359,501.000000 115.166718,501.000000 1.000061,501.000000 
	C1.000041,334.333405 1.000041,167.666794 1.000020,1.000151 
	C167.666565,1.000100 334.333130,1.000100 500.999756,1.000050 
	C500.999847,167.666519 500.999847,334.333038 500.999939,500.999786 
	C448.833344,501.000000 396.666656,501.000000 344.000000,501.000000 
M203.523087,220.928574 
	C204.253204,220.688614 205.423874,220.652542 205.644135,220.176605 
	C207.508133,216.149002 209.370438,212.102722 210.866714,207.930618 
	C211.582123,205.935760 213.786316,203.582520 210.831512,200.895203 
	C211.137558,200.340256 211.443604,199.785309 211.995575,199.903610 
	C212.954285,199.647034 214.753815,199.322586 214.739441,199.144547 
	C214.617950,197.639420 214.165283,196.161026 213.828369,194.301834 
	C213.828369,194.301834 214.062546,194.011337 214.770599,193.967941 
	C218.500229,193.583282 218.346954,192.071991 216.169739,189.259171 
	C218.065399,185.353607 219.862915,181.396469 221.881516,177.555527 
	C224.430099,172.706085 227.443451,168.083893 229.751495,163.128555 
	C234.729019,152.441940 239.454666,141.635590 244.125443,130.810074 
	C245.419266,127.811371 246.158066,124.573196 247.151520,121.444893 
	C245.685104,121.840469 245.098907,122.600449 244.676102,123.442467 
	C228.069489,156.514252 211.405258,189.557648 194.998306,222.728302 
	C193.391708,225.976425 191.715454,226.935013 188.299530,226.899460 
	C172.301895,226.732941 156.301575,226.831161 140.302231,226.815765 
	C138.868027,226.814392 137.433975,226.676712 135.538544,226.578415 
	C135.538544,186.907990 135.538544,147.660721 135.538544,108.432571 
	C122.458511,108.432571 109.867805,108.432571 97.282501,108.432571 
	C97.282501,196.757828 97.282501,284.807159 97.282501,372.741089 
	C110.213737,372.741089 122.810493,372.741089 135.857849,372.741089 
	C135.857849,329.089783 135.857849,285.699982 135.857849,242.310776 
	C152.842422,242.310776 169.369247,242.310776 185.536530,242.310776 
	C177.064362,266.029358 168.352219,289.486938 160.329376,313.177979 
	C154.000000,331.868286 148.526779,350.848297 142.654205,369.693695 
	C141.563828,373.192719 142.258087,375.548431 146.555084,376.030151 
	C149.002121,371.485443 151.823746,367.101135 153.814453,362.367401 
	C157.798599,352.893646 161.552917,343.308655 164.998169,333.625824 
	C172.173447,313.459869 179.191345,293.236084 186.053589,272.961487 
	C188.754883,264.980499 191.216339,256.881134 193.118408,248.680618 
	C194.280731,243.669342 195.335083,242.014893 200.548172,242.010559 
	C217.547501,241.996414 234.546814,241.999191 251.546127,242.017441 
	C252.818756,242.018799 254.091202,242.193726 255.778015,242.318619 
	C255.778015,286.018768 255.778015,329.420868 255.778015,373.005188 
	C282.543121,373.005188 308.869751,372.861420 335.193939,373.053680 
	C354.028290,373.191193 372.318817,370.368713 390.004089,363.950134 
	C406.882141,357.824554 422.780182,350.179840 434.181946,335.410736 
	C448.621887,316.706146 452.793304,285.400574 433.748016,264.058838 
	C423.002411,252.017487 409.867493,244.037445 394.750153,239.073334 
	C388.177277,236.914978 381.436371,235.268219 374.180176,233.222321 
	C375.679596,232.654190 376.580322,232.290527 377.495972,231.969299 
	C393.244446,226.444122 407.532288,218.697693 418.708740,205.867569 
	C437.822418,183.925751 436.463043,143.441177 407.166504,125.679329 
	C389.610413,115.035492 370.404358,109.968414 350.306366,109.188065 
	C322.188629,108.096352 294.018738,108.346176 265.871033,108.032822 
	C262.585419,107.996239 259.299042,108.027863 255.517914,108.027863 
	C255.517914,147.812317 255.517914,187.069916 255.517914,226.758926 
	C238.061478,226.758926 221.103851,226.758926 204.159668,225.980103 
	C203.729568,224.543564 206.238663,221.472748 202.309952,221.482086 
	C202.467072,221.301849 202.624176,221.121613 203.523087,220.928574 
z"/>
<path fill="#FCFCFC" opacity="1.000000" stroke="none" 
	d="
M211.749664,199.230347 
	C211.443604,199.785309 211.137558,200.340256 210.494385,201.445557 
	C207.698608,208.311050 205.239944,214.626205 202.781296,220.941360 
	C202.624176,221.121613 202.467072,221.301849 201.968964,222.018234 
	C201.110458,223.841995 200.592926,225.129623 199.938049,226.758926 
	C201.654572,226.758926 202.900391,226.758926 204.146210,226.758926 
	C221.103851,226.758926 238.061478,226.758926 255.517914,226.758926 
	C255.517914,187.069916 255.517914,147.812317 255.517914,108.027863 
	C259.299042,108.027863 262.585419,107.996239 265.871033,108.032822 
	C294.018738,108.346176 322.188629,108.096352 350.306366,109.188065 
	C370.404358,109.968414 389.610413,115.035492 407.166504,125.679329 
	C436.463043,143.441177 437.822418,183.925751 418.708740,205.867569 
	C407.532288,218.697693 393.244446,226.444122 377.495972,231.969299 
	C376.580322,232.290527 375.679596,232.654190 374.180176,233.222321 
	C381.436371,235.268219 388.177277,236.914978 394.750153,239.073334 
	C409.867493,244.037445 423.002411,252.017487 433.748016,264.058838 
	C452.793304,285.400574 448.621887,316.706146 434.181946,335.410736 
	C422.780182,350.179840 406.882141,357.824554 390.004089,363.950134 
	C372.318817,370.368713 354.028290,373.191193 335.193939,373.053680 
	C308.869751,372.861420 282.543121,373.005188 255.778015,373.005188 
	C255.778015,329.420868 255.778015,286.018768 255.778015,242.318619 
	C254.091202,242.193726 252.818756,242.018799 251.546127,242.017441 
	C234.546814,241.999191 217.547501,241.996414 200.548172,242.010559 
	C195.335083,242.014893 194.280731,243.669342 193.118408,248.680618 
	C191.216339,256.881134 188.754883,264.980499 186.053589,272.961487 
	C179.191345,293.236084 172.173447,313.459869 164.998169,333.625824 
	C161.552917,343.308655 157.798599,352.893646 153.814453,362.367401 
	C151.823746,367.101135 149.002121,371.485443 146.555084,376.030151 
	C142.258087,375.548431 141.563828,373.192719 142.654205,369.693695 
	C148.526779,350.848297 154.000000,331.868286 160.329376,313.177979 
	C168.352219,289.486938 177.064362,266.029358 185.536530,242.310776 
	C169.369247,242.310776 152.842422,242.310776 135.857849,242.310776 
	C135.857849,285.699982 135.857849,329.089783 135.857849,372.741089 
	C122.810493,372.741089 110.213737,372.741089 97.282501,372.741089 
	C97.282501,284.807159 97.282501,196.757828 97.282501,108.432571 
	C109.867805,108.432571 122.458511,108.432571 135.538544,108.432571 
	C135.538544,147.660721 135.538544,186.907990 135.538544,226.578415 
	C137.433975,226.676712 138.868027,226.814392 140.302231,226.815765 
	C156.301575,226.831161 172.301895,226.732941 188.299530,226.899460 
	C191.715454,226.935013 193.391708,225.976425 194.998306,222.728302 
	C211.405258,189.557648 228.069489,156.514252 244.676102,123.442467 
	C245.098907,122.600449 245.685104,121.840469 247.151520,121.444893 
	C246.158066,124.573196 245.419266,127.811371 244.125443,130.810074 
	C239.454666,141.635590 234.729019,152.441940 229.751495,163.128555 
	C227.443451,168.083893 224.430099,172.706085 221.881516,177.555527 
	C219.862915,181.396469 218.065399,185.353607 215.787445,189.779312 
	C214.957596,191.536743 214.510071,192.774048 214.062546,194.011337 
	C214.062546,194.011337 213.828369,194.301834 213.542816,194.662689 
	C212.754745,196.425812 212.252213,197.828079 211.749664,199.230347 
M308.854156,357.901123 
	C311.670959,358.137543 314.485443,358.406372 317.304901,358.605194 
	C337.649231,360.039795 357.251160,358.482422 375.705475,348.134491 
	C408.437897,329.780396 407.754364,290.348938 390.722168,270.028107 
	C379.676086,256.849243 365.687592,248.467056 349.199768,244.038055 
	C332.859711,239.648758 316.144897,241.325089 299.554230,241.021347 
	C298.305847,240.998505 297.053070,241.217606 296.032043,241.304657 
	C296.032043,279.628235 296.032043,317.530334 296.032043,355.706055 
	C300.161438,356.441376 304.056641,357.134949 308.854156,357.901123 
M353.202118,125.136818 
	C348.503876,124.423546 343.818298,123.248909 339.104065,123.119659 
	C333.809723,122.974503 328.420349,123.365967 323.195740,124.251762 
	C313.961090,125.817436 304.819824,127.934204 296.043976,129.737213 
	C296.043976,163.690567 296.043976,196.450409 296.043976,230.565399 
	C313.645966,229.367371 331.100739,229.619278 348.018921,226.729645 
	C383.788055,220.620255 394.254852,187.692902 390.195618,165.009903 
	C386.513885,144.436768 372.519409,132.678787 353.202118,125.136818 
z"/>
<path fill="#202020" opacity="1.000000" stroke="none" 
	d="
M203.152191,220.934967 
	C205.239944,214.626205 207.698608,208.311050 210.445236,201.768082 
	C213.786316,203.582520 211.582123,205.935760 210.866714,207.930618 
	C209.370438,212.102722 207.508133,216.149002 205.644135,220.176605 
	C205.423874,220.652542 204.253204,220.688614 203.152191,220.934967 
z"/>
<path fill="#6B6B6B" opacity="1.000000" stroke="none" 
	d="
M204.152939,226.369507 
	C202.900391,226.758926 201.654572,226.758926 199.938049,226.758926 
	C200.592926,225.129623 201.110458,223.841995 201.826279,222.347290 
	C206.238663,221.472748 203.729568,224.543564 204.152939,226.369507 
z"/>
<path fill="#202020" opacity="1.000000" stroke="none" 
	d="
M211.872620,199.566986 
	C212.252213,197.828079 212.754745,196.425812 213.534683,194.849060 
	C214.165283,196.161026 214.617950,197.639420 214.739441,199.144547 
	C214.753815,199.322586 212.954285,199.647034 211.872620,199.566986 
z"/>
<path fill="#202020" opacity="1.000000" stroke="none" 
	d="
M214.416565,193.989639 
	C214.510071,192.774048 214.957596,191.536743 215.676697,190.104309 
	C218.346954,192.071991 218.500229,193.583282 214.416565,193.989639 
z"/>
<path fill="#010101" opacity="1.000000" stroke="none" 
	d="
M308.403015,357.864838 
	C304.056641,357.134949 300.161438,356.441376 296.032043,355.706055 
	C296.032043,317.530334 296.032043,279.628235 296.032043,241.304657 
	C297.053070,241.217606 298.305847,240.998505 299.554230,241.021347 
	C316.144897,241.325089 332.859711,239.648758 349.199768,244.038055 
	C365.687592,248.467056 379.676086,256.849243 390.722168,270.028107 
	C407.754364,290.348938 408.437897,329.780396 375.705475,348.134491 
	C357.251160,358.482422 337.649231,360.039795 317.304901,358.605194 
	C314.485443,358.406372 311.670959,358.137543 308.403015,357.864838 
z"/>
<path fill="#010101" opacity="1.000000" stroke="none" 
	d="
M353.571320,125.281418 
	C372.519409,132.678787 386.513885,144.436768 390.195618,165.009903 
	C394.254852,187.692902 383.788055,220.620255 348.018921,226.729645 
	C331.100739,229.619278 313.645966,229.367371 296.043976,230.565399 
	C296.043976,196.450409 296.043976,163.690567 296.043976,129.737213 
	C304.819824,127.934204 313.961090,125.817436 323.195740,124.251762 
	C328.420349,123.365967 333.809723,122.974503 339.104065,123.119659 
	C343.818298,123.248909 348.503876,124.423546 353.571320,125.281418 
z"/>
</svg>